<?xml version="1.0" standalone="no"?>
<!DOCTYPE svg PUBLIC "-//W3C//DTD SVG 20010904//EN"
 "http://www.w3.org/TR/2001/REC-SVG-20010904/DTD/svg10.dtd">
<svg version="1.0" xmlns="http://www.w3.org/2000/svg"
 width="1024.000000pt" height="1024.000000pt" viewBox="0 0 1024.000000 1024.000000"
 preserveAspectRatio="xMidYMid meet">

<g transform="translate(0.000000,1024.000000) scale(0.100000,-0.100000)"
fill="#000000" stroke="none">
<path d="M4846 9369 c-554 -39 -1069 -185 -1571 -443 -946 -486 -1679 -1325
-2036 -2328 -177 -500 -260 -1060 -230 -1564 35 -583 163 -1065 423 -1584 208
-417 463 -768 802 -1105 490 -488 1046 -832 1691 -1047 381 -127 755 -193
1170 -205 782 -22 1569 175 2230 559 436 254 833 592 1125 958 743 932 1026
2113 794 3315 -100 517 -294 1004 -587 1470 -338 540 -818 1015 -1370 1359
-739 460 -1595 676 -2441 615z m569 -199 c663 -49 1304 -265 1860 -627 765
-498 1344 -1249 1639 -2124 127 -378 184 -676 208 -1081 48 -825 -188 -1669
-660 -2358 -278 -404 -625 -746 -1032 -1015 -535 -353 -1137 -580 -1782 -670
-173 -25 -607 -31 -788 -11 -649 69 -1311 314 -1865 689 -401 271 -777 633
-1043 1004 -418 583 -662 1216 -734 1903 -19 183 -16 591 6 775 139 1183 775
2217 1771 2880 711 473 1567 698 2420 635z"/>
<path d="M5060 8759 c-78 -9 -207 -48 -275 -82 -22 -11 -73 -42 -113 -69 l-73
-49 -132 10 c-73 6 -168 14 -211 18 l-80 6 35 -41 c19 -23 53 -56 76 -73 l42
-32 -87 -29 c-48 -16 -102 -39 -122 -51 -19 -11 -100 -84 -180 -162 -80 -77
-169 -156 -197 -174 -29 -19 -53 -36 -53 -39 0 -2 25 -1 55 3 l55 6 -40 -79
c-49 -96 -66 -172 -79 -367 -11 -156 -25 -221 -60 -280 -24 -41 -17 -44 31
-12 l34 24 11 -72 c7 -41 30 -113 53 -166 l42 -94 9 -230 c6 -148 6 -231 0
-233 -23 -8 -63 -46 -78 -75 -22 -40 -30 -321 -15 -533 12 -166 31 -222 97
-283 48 -44 92 -57 161 -47 37 5 44 3 44 -12 0 -9 18 -91 40 -182 22 -90 36
-167 32 -170 -4 -4 -41 -19 -82 -35 -109 -42 -301 -142 -416 -217 -239 -156
-361 -301 -424 -503 -27 -88 -39 -332 -21 -452 11 -73 54 -239 80 -307 7 -16
9 -31 7 -34 -6 -6 -106 196 -106 215 0 25 -20 13 -59 -37 -44 -56 -81 -144
-81 -193 0 -70 78 -153 250 -267 219 -145 423 -244 721 -350 95 -35 178 -66
182 -70 12 -11 -134 14 -239 40 -145 37 -310 97 -453 166 -166 80 -233 120
-338 201 -77 60 -173 162 -173 185 0 17 -41 2 -324 -113 -148 -61 -280 -115
-293 -120 l-24 -9 28 -37 c406 -548 955 -980 1579 -1242 552 -231 1107 -313
1674 -246 390 45 794 165 1175 349 586 282 1043 675 1380 1185 l69 103 -23 17
c-12 10 -103 57 -200 106 l-178 88 9 35 c29 106 -59 266 -215 390 l-65 52 -12
73 c-16 93 -71 287 -103 359 -73 165 -200 277 -452 398 -149 72 -555 240 -617
255 -16 4 -28 13 -28 20 0 7 11 60 24 117 14 57 30 135 36 174 l11 71 69 -5
c58 -4 74 -1 109 18 72 41 122 136 141 265 7 50 10 175 8 330 -3 280 -7 293
-76 322 l-34 14 7 127 c16 290 19 312 57 397 47 107 61 174 57 277 l-4 86 48
-51 c56 -60 55 -69 9 128 -31 135 -72 250 -104 298 -23 32 -23 33 44 6 29 -12
63 -25 76 -30 l23 -9 -23 42 c-37 69 -163 188 -305 288 -73 51 -131 95 -129
97 2 2 30 -5 62 -16 32 -12 59 -19 62 -17 2 2 -22 30 -54 61 -110 110 -313
221 -513 281 l-90 27 77 34 c42 19 83 37 90 40 17 7 15 23 -2 23 -8 0 -67 7
-130 15 -238 31 -416 45 -586 45 l-175 0 47 31 c31 20 75 36 135 48 83 17 86
19 48 24 -81 13 -192 15 -265 6z m-305 -1181 c-49 -139 -69 -253 -61 -362 3
-49 8 -91 10 -94 19 -18 218 82 284 143 46 41 54 46 47 25 -22 -70 -79 -161
-149 -239 l-31 -34 64 34 c36 19 95 64 131 100 81 80 140 190 172 324 12 50
23 92 25 94 12 16 33 -36 43 -106 13 -101 34 -171 70 -244 31 -59 114 -158
125 -147 3 3 17 32 31 65 16 41 24 51 24 33 0 -33 -23 -114 -49 -174 -12 -27
-20 -50 -19 -51 2 -2 32 11 68 28 95 44 223 175 277 284 23 45 47 108 54 139
17 73 27 49 28 -63 1 -92 -24 -177 -72 -247 -14 -22 -25 -41 -23 -43 5 -5 138
65 161 85 12 9 43 44 69 77 l49 59 -5 -79 c-5 -86 -29 -147 -76 -197 l-26 -28
35 0 c60 0 147 26 186 56 48 36 66 58 94 114 l22 44 24 -69 c55 -162 79 -370
69 -612 -6 -166 0 -283 15 -283 5 0 9 9 9 20 0 28 35 116 62 156 23 34 71 64
102 64 9 0 25 -9 36 -20 19 -19 20 -33 20 -307 l0 -286 -31 -56 c-47 -83 -76
-117 -114 -135 -39 -19 -74 -10 -117 31 l-26 25 -7 -48 c-53 -383 -196 -703
-435 -977 -225 -258 -465 -408 -679 -426 -278 -22 -459 56 -685 299 -234 250
-378 523 -485 921 -33 122 -70 225 -71 197 0 -25 -45 -51 -75 -44 -32 8 -89
66 -117 119 -21 38 -23 61 -29 257 -4 118 -10 254 -14 303 -7 76 -6 90 10 107
43 47 100 9 155 -103 46 -95 45 -97 29 120 -9 127 -8 171 10 347 11 110 23
231 27 268 l6 68 40 -51 c50 -63 118 -97 215 -106 l68 -6 -32 27 c-34 29 -73
100 -73 134 0 18 8 13 47 -29 25 -27 48 -47 50 -45 2 2 -3 28 -11 57 -18 59
-22 234 -6 244 6 3 10 -3 10 -15 0 -25 50 -125 82 -162 22 -25 129 -101 135
-95 1 2 -9 32 -24 67 -19 48 -26 84 -27 136 0 63 4 80 36 146 48 96 105 160
197 220 41 27 75 47 77 45 2 -2 -12 -46 -31 -99z m1509 -2815 c37 -429 53
-562 69 -586 9 -13 70 -60 136 -104 l121 -79 -86 -110 c-107 -135 -264 -291
-369 -366 -141 -100 -328 -181 -501 -218 -143 -30 -409 -38 -567 -16 -274 39
-523 129 -742 271 -92 59 -231 178 -266 226 l-22 32 24 19 c13 10 58 43 100
73 47 34 81 66 89 85 12 30 10 113 -16 660 -3 69 -4 123 -1 120 2 -3 60 -75
127 -160 161 -203 356 -399 477 -478 50 -33 131 -74 180 -92 78 -29 100 -33
198 -34 91 -1 122 3 177 22 205 71 401 275 706 734 75 113 139 207 143 207 3
1 13 -92 23 -206z m677 -649 c-91 -194 -355 -502 -597 -697 -198 -159 -484
-324 -744 -429 -150 -60 -170 -68 -170 -63 0 3 62 36 138 74 602 301 983 624
1294 1095 54 82 99 154 100 160 1 6 3 -8 5 -32 3 -33 -3 -59 -26 -108z m-3377
-39 c165 -260 300 -412 500 -562 157 -118 292 -195 661 -378 182 -91 325 -165
320 -165 -6 0 -73 24 -150 54 -516 199 -871 399 -1107 624 -170 162 -286 365
-312 542 l-6 45 28 -50 c16 -27 45 -77 66 -110z m3991 -683 c-30 -25 -159
-115 -218 -151 -105 -64 -249 -134 -391 -191 -172 -69 -516 -166 -516 -147 0
3 37 18 83 33 250 82 682 270 907 393 115 64 159 84 135 63z m-3072 -393 c60
-31 67 -46 67 -143 -1 -219 -32 -563 -62 -678 -8 -32 -17 -48 -27 -48 -39 1
-40 9 -31 200 5 102 11 278 15 391 l7 207 -29 26 c-27 26 -27 27 -9 41 24 18
40 19 69 4z m1504 -41 c17 -13 13 -54 -5 -50 -9 1 -12 -70 -12 -317 0 -319 -6
-445 -21 -436 -12 8 -38 95 -55 185 -8 47 -19 190 -24 319 -8 205 -11 235 -27
246 -15 11 -16 15 -3 30 34 41 111 53 147 23z m-1021 -569 c-18 -90 28 -133
122 -112 26 5 168 44 317 86 148 42 271 75 272 73 2 -1 -54 -30 -124 -63 -528
-251 -517 -247 -575 -251 -53 -4 -59 -2 -88 26 -37 37 -40 94 -9 161 16 37 83
131 93 131 1 0 -2 -23 -8 -51z"/>
<path d="M4363 6841 c-160 -44 -246 -121 -267 -242 -11 -61 1 -64 97 -19 204
96 427 114 661 54 70 -18 76 -14 76 63 0 67 -30 104 -108 134 -49 19 -81 23
-222 26 -139 2 -176 0 -237 -16z"/>
<path d="M5531 6849 c-115 -22 -168 -78 -158 -166 2 -25 9 -49 13 -53 5 -5 45
0 89 11 217 52 446 29 630 -63 28 -14 60 -29 73 -32 20 -7 22 -4 22 36 -1 124
-113 226 -288 264 -74 15 -309 17 -381 3z"/>
<path d="M4633 5409 c-83 -8 -123 -21 -123 -41 0 -23 118 -154 185 -204 79
-60 154 -96 233 -113 78 -16 375 -14 442 4 128 34 249 116 350 237 33 40 60
76 60 79 0 13 -58 28 -152 38 -110 12 -869 13 -995 0z m842 -80 c66 -6 122
-12 124 -14 9 -10 -83 -116 -125 -146 -82 -56 -143 -72 -304 -77 -128 -4 -155
-2 -227 18 -106 28 -162 64 -219 142 l-46 63 53 8 c172 25 492 27 744 6z"/>
<path d="M4906 4850 c32 -55 99 -83 209 -88 116 -5 194 15 242 63 43 43 43 59
1 52 -180 -31 -288 -31 -437 -1 l-35 7 20 -33z"/>
<path d="M3905 8486 c-479 -193 -842 -433 -1205 -796 -183 -182 -293 -317
-435 -530 -340 -512 -528 -1062 -576 -1690 -41 -531 54 -1081 273 -1592 52
-121 192 -391 227 -437 l18 -23 312 125 313 125 23 66 c24 69 47 112 102 187
l33 47 0 162 c0 255 47 439 151 595 107 160 338 338 624 482 83 41 151 76 153
77 1 2 -4 31 -11 66 l-12 63 -46 11 c-112 29 -193 107 -237 228 l-27 73 -3
355 c-2 239 0 367 8 392 6 20 26 54 45 74 l35 37 0 153 0 153 -47 106 c-26 58
-51 105 -55 105 -5 0 -27 -9 -48 -19 l-40 -19 0 41 c1 23 9 67 20 97 25 70 25
80 0 80 -26 0 -25 10 5 87 21 51 28 92 35 204 6 76 17 172 26 212 8 39 16 78
17 86 1 9 -23 22 -69 36 -119 37 -117 32 -39 74 39 20 85 46 103 58 30 18 32
22 17 31 -15 8 -8 17 46 62 35 28 125 114 199 189 96 98 151 146 191 166 36
18 55 34 52 42 -8 22 -42 14 -178 -41z m-639 -972 c23 -34 9 -75 -29 -88 -33
-12 -55 -1 -76 36 -36 62 66 112 105 52z m-342 -362 c32 -265 89 -333 308
-368 51 -9 94 -16 95 -18 2 -1 -34 -8 -79 -15 -143 -22 -217 -59 -263 -131
-34 -54 -46 -105 -64 -290 l-17 -165 -13 164 c-24 316 -70 378 -311 418 l-105
17 82 13 c170 27 251 79 292 189 13 33 29 118 39 197 9 76 17 135 19 130 1 -4
9 -68 17 -141z m-696 -878 c27 -19 28 -55 2 -79 -41 -37 -106 12 -80 61 11 20
21 26 50 33 3 0 16 -6 28 -15z m218 -215 c10 -17 -13 -36 -27 -22 -12 12 -4
33 11 33 5 0 12 -5 16 -11z m838 -485 c23 -23 20 -51 -9 -70 -23 -15 -27 -15
-50 0 -27 18 -33 54 -13 74 17 17 54 15 72 -4z m-549 -228 l40 -20 -32 -8
c-36 -9 -83 -60 -84 -91 0 -18 -3 -16 -11 8 -15 42 -45 73 -79 80 -37 8 -37
22 1 30 32 7 67 44 76 82 6 21 8 19 28 -20 14 -29 33 -48 61 -61z m-426 -10
c9 -10 8 -16 -4 -26 -21 -17 -51 6 -34 26 6 8 15 14 19 14 4 0 13 -6 19 -14z
m9 -642 c46 -32 18 -114 -39 -114 -29 0 -61 34 -61 65 0 31 32 65 61 65 9 0
27 -7 39 -16z m323 -77 c-13 -13 -26 -3 -16 12 3 6 11 8 17 5 6 -4 6 -10 -1
-17z m222 -152 c1 -5 -6 -11 -15 -13 -11 -2 -18 3 -18 13 0 17 30 18 33 0z
m-511 -137 c-15 -15 -26 -4 -18 18 5 13 9 15 18 6 9 -9 9 -15 0 -24z m488
-133 c0 -8 -7 -15 -15 -15 -8 0 -15 7 -15 15 0 8 7 15 15 15 8 0 15 -7 15 -15z
m-654 -170 c4 -8 0 -22 -7 -31 -11 -13 -14 -13 -27 0 -17 17 -9 46 13 46 9 0
18 -7 21 -15z m284 -85 c0 -5 -4 -10 -10 -10 -5 0 -10 5 -10 10 0 6 5 10 10
10 6 0 10 -4 10 -10z m185 -200 c3 -5 1 -10 -4 -10 -6 0 -11 5 -11 10 0 6 2
10 4 10 3 0 8 -4 11 -10z"/>
<path d="M6186 8525 c10 -8 24 -15 30 -15 6 0 58 -31 115 -69 113 -74 211
-170 257 -251 17 -30 51 -65 88 -93 63 -46 153 -145 211 -233 26 -39 103 -234
103 -261 0 -2 -25 -1 -56 3 -52 6 -56 5 -51 -12 3 -11 13 -55 22 -99 9 -44 18
-88 20 -98 2 -10 -8 -28 -23 -42 l-25 -24 36 -38 c20 -20 37 -41 37 -46 0 -10
-36 -47 -68 -68 -14 -11 -28 -37 -37 -75 -9 -32 -32 -93 -52 -134 -37 -75 -37
-76 -41 -228 l-4 -152 30 -34 c55 -63 57 -81 57 -446 0 -297 -2 -342 -18 -395
-48 -154 -129 -248 -247 -286 l-68 -22 -11 -61 c-6 -33 -7 -63 -3 -67 4 -3 84
-37 177 -74 218 -86 432 -188 541 -260 156 -101 249 -207 324 -368 37 -78 99
-272 115 -360 6 -29 27 -57 95 -126 49 -49 109 -120 134 -158 44 -65 86 -170
86 -217 0 -17 28 -36 143 -98 79 -43 149 -78 155 -78 16 0 118 215 182 380
208 541 271 1140 184 1755 -62 443 -231 912 -470 1306 -426 705 -1102 1255
-1876 1525 -109 38 -120 40 -92 19z m1188 -1317 c9 -12 16 -30 16 -40 0 -26
-36 -58 -64 -58 -32 0 -69 45 -60 74 14 49 81 63 108 24z m329 -621 c30 -200
86 -249 332 -293 25 -5 33 -9 20 -11 -204 -39 -235 -50 -284 -110 -41 -50 -60
-108 -72 -228 -6 -55 -14 -116 -19 -135 -7 -33 -8 -31 -9 20 -2 103 -22 233
-42 279 -40 92 -104 131 -253 155 -48 7 -89 16 -92 18 -2 3 23 8 57 12 203 23
281 93 314 282 8 47 16 110 16 138 l1 51 9 -40 c4 -22 14 -84 22 -138z m-225
42 c4 -19 -19 -31 -38 -19 -18 11 -4 42 17 38 10 -2 19 -10 21 -19z m-238
-829 c24 -24 24 -29 4 -58 -19 -28 -58 -28 -78 -1 -16 23 -12 47 12 67 22 17
39 15 62 -8z m330 -398 c0 -2 19 -11 42 -22 l42 -19 -29 -11 c-42 -16 -63 -37
-71 -72 l-6 -31 -22 39 c-13 24 -36 46 -59 58 l-39 18 40 18 c29 13 44 29 58
59 l18 41 13 -38 c7 -20 13 -38 13 -40z m784 -34 c9 -12 16 -28 16 -35 0 -18
-29 -43 -50 -43 -10 0 -26 7 -34 16 -31 30 -9 84 34 84 10 0 26 -10 34 -22z
m-698 -655 c-10 -10 -19 5 -10 18 6 11 8 11 12 0 2 -7 1 -15 -2 -18z m362 -26
c6 -28 -16 -49 -39 -36 -22 11 -24 30 -7 47 17 17 42 11 46 -11z m346 -383 c8
-21 -1 -34 -24 -34 -25 0 -35 17 -20 35 16 20 36 19 44 -1z m-417 -40 c4 -11
-1 -22 -12 -31 -16 -11 -21 -11 -33 1 -8 8 -12 22 -9 30 8 21 46 21 54 0z
m343 -310 c0 -8 -5 -12 -10 -9 -6 4 -8 11 -5 16 9 14 15 11 15 -7z m-269 -69
c-1 -15 -24 -12 -29 3 -3 9 2 13 12 10 10 -1 17 -7 17 -13z"/>
</g>
</svg>
